<svg width="204" height="238" viewBox="0 0 204 238" fill="none" xmlns="http://www.w3.org/2000/svg">
<path d="M171.86 57.79L171.8 90.02C171.8 91.27 171.66 92.52 171.4 93.73C172.68 94.3 173.88 95.1 174.96 96.11C180.2 101.05 189.22 108.59 197.19 115.24C199.56 117.21 201.58 118.91 203.32 120.36L203.34 28.54L171.86 57.79Z" fill="#365D84"/>
<path d="M167.07 104.48C166.45 103.9 165.48 103.89 164.85 104.47L133.26 133.34L133.22 133.38C132.79 133.79 132.73 134.29 132.73 134.55C132.73 134.88 132.83 135.35 133.27 135.74C134.76 137.07 136.47 138.6 138.37 140.31C138.42 140.35 138.47 140.39 138.52 140.43C138.52 140.43 138.54 140.45 138.55 140.46C138.55 140.46 138.55 140.46 138.56 140.47C138.78 140.66 138.99 140.85 139.21 141.05L139.56 141.37C139.56 141.37 139.58 141.39 139.59 141.4C139.9 141.67 140.2 141.94 140.51 142.23C141.09 142.76 141.69 143.3 142.31 143.85L142.67 144.17C142.88 144.36 143.1 144.56 143.31 144.76C143.31 144.76 143.32 144.76 143.33 144.77C143.52 144.94 143.7 145.11 143.9 145.28C144.07 145.44 144.24 145.6 144.42 145.76L144.73 146.05L144.78 146.09C144.78 146.09 144.86 146.16 144.9 146.19C144.97 146.25 145.04 146.32 145.11 146.38L145.33 146.58L145.65 146.86C145.89 147.08 146.12 147.29 146.37 147.52C146.37 147.52 146.38 147.52 146.39 147.53L146.46 147.59C146.62 147.73 146.78 147.88 146.93 148.03C147.07 148.15 147.21 148.27 147.35 148.4L147.45 148.49C147.91 148.91 148.37 149.33 148.84 149.75L148.98 149.87C149.53 150.38 150.09 150.89 150.65 151.4L153.96 154.43C154.36 154.79 154.75 155.16 155.15 155.52C155.6 155.93 156.04 156.33 156.49 156.75C156.59 156.84 156.69 156.93 156.79 157.03C157.03 157.25 157.27 157.47 157.51 157.69C157.85 158.01 158.2 158.33 158.55 158.65C158.72 158.81 158.91 158.98 159.1 159.15L160.85 160.76C161.59 161.44 162.34 162.12 163.08 162.81C163.19 162.9 163.29 162.99 163.38 163.08C165.35 164.85 168.29 164.85 170.26 163.07C171.75 161.71 173.24 160.36 174.71 159.03L176 157.86C176.54 157.37 177.08 156.88 177.61 156.4L178.35 155.73L178.69 155.42C179.26 154.89 179.84 154.37 180.41 153.85L180.44 153.82C180.9 153.41 181.35 153 181.8 152.59L183.39 151.14L185.86 148.89C187.01 147.84 188.12 146.82 189.2 145.84C195.83 139.73 199.49 136.07 201.48 133.94C198.48 131.33 193.81 127.43 189.79 124.07C181.7 117.32 172.53 109.67 167.04 104.48H167.07Z" fill="#365D84"/>
<path d="M189.58 161.08L185.52 164.78L185.37 164.9C184.83 165.39 184.31 165.87 183.78 166.35L182.46 167.55C180.99 168.87 179.52 170.22 178.03 171.57C177.09 172.43 176.07 173.16 175.01 173.75L175.31 174.04L175.45 174.17C177.98 176.51 180.49 178.82 182.93 181.07L196.5 168.64C197.57 167.66 198.16 166.33 198.16 164.88C198.16 163.43 197.59 162.09 196.52 161.1C194.55 159.26 191.57 159.25 189.58 161.06V161.08Z" fill="#365D84"/>
<path d="M147.98 228.69L149.78 230.42C158.9 239.17 173.23 239.2 182.39 230.49C187.13 225.98 189.75 219.89 189.75 213.36C189.75 206.83 187.26 201.12 182.88 196.72L147.97 228.69H147.98Z" fill="#365D84"/>
<path d="M160.32 83.7601L160.35 68.3701L152.2 75.9201L160.32 83.7601Z" fill="#365D84"/>
<path d="M102.12 27.56L143.92 67.92L157.75 55.11L101.77 0L45.63 56.24L58.56 68.03L102.12 27.56Z" fill="#365D84"/>
<path d="M137.21 154.73C137.05 154.59 136.89 154.44 136.74 154.3C136.56 154.13 136.38 153.97 136.19 153.8C136.35 153.95 136.5 154.09 136.66 154.24L137.2 154.74L137.21 154.73Z" fill="#365D84"/>
<path d="M131.99 154.26C131.13 154.66 129.18 155.88 129.06 158.63V158.77V158.79V158.84C129.06 158.84 129.06 158.86 129.06 158.89V158.97L129.11 169.43V171.02C129.11 174.44 127.81 177.63 125.44 180.03L123.75 181.73H123.74L115.15 190.39L114.82 190.72C114.74 190.8 114.65 190.88 114.57 190.95C114.49 191.03 114.4 191.11 114.32 191.18C114.15 191.33 113.98 191.48 113.8 191.63L113.86 191.69L111.08 194.5C110.02 195.56 108.8 196.4 107.48 197.02V207.35H120.72C120.97 207.35 121.22 207.27 121.41 207.13C121.46 207.09 121.5 207.06 121.55 207.02C127.86 201.36 142.53 188.18 157.27 174.87C157.6 174.58 157.67 174.22 157.67 173.97C157.67 173.72 157.61 173.37 157.28 173.07C156.74 172.58 156.2 172.07 155.66 171.56L155.59 171.5L155.46 171.39L155.44 171.37C154.67 170.66 153.9 169.96 153.15 169.26L151.82 168.04L150.86 167.16C150.26 166.6 149.66 166.06 149.08 165.53C148.98 165.43 148.88 165.34 148.78 165.25C148.32 164.83 147.89 164.43 147.46 164.04C147.05 163.67 146.64 163.29 146.24 162.92L145.15 161.92L144.61 161.42L144.08 160.93L142.97 159.92C142.42 159.42 141.88 158.92 141.34 158.43C141.32 158.41 141.3 158.39 141.28 158.37L141.21 158.31C140.73 157.87 140.25 157.44 139.77 157H139.76C139.76 157 139.74 156.97 139.73 156.96C139.57 156.82 139.42 156.68 139.26 156.54C139.09 156.39 138.92 156.24 138.76 156.08L138.68 156C138.44 155.77 138.22 155.57 138 155.37L137.76 155.15C137.76 155.15 137.74 155.13 137.73 155.12C137.67 155.06 137.6 155.01 137.54 154.95L137.46 154.88C137.46 154.88 137.46 154.88 137.45 154.87C135.18 153.06 132.8 153.95 132.11 154.28L131.99 154.26Z" fill="#365D84"/>
<path d="M120.71 218.84H83.01C82.84 218.84 82.67 218.84 82.49 218.83L72.42 228.09L81.48 236.33C82.43 237.19 83.65 237.67 84.93 237.67H119.17C120.46 237.67 121.68 237.19 122.62 236.33L131.16 228.51L121.06 218.85C120.94 218.85 120.83 218.85 120.71 218.85V218.84Z" fill="#365D84"/>
<path d="M74.74 90.5602L74.75 90.5702L74.84 90.4702L74.74 90.5602Z" fill="#365D84"/>
<path d="M96.44 102.58C99.2 105.08 103.42 105.17 106.27 102.79C106.37 102.71 106.46 102.62 106.56 102.53L120.13 89.9501L102.04 73.1001L83.23 90.5201L96.42 102.56C96.42 102.56 96.42 102.56 96.43 102.57L96.44 102.58Z" fill="#365D84"/>
<path d="M46.98 173.43C46.98 173.67 47.04 174.02 47.36 174.32L82.15 207C82.28 207.11 82.42 207.2 82.54 207.25C82.71 207.32 82.86 207.35 83.01 207.35H95.98V196.71C94.9 196.13 93.91 195.39 93.02 194.49L90.24 191.68L90.3 191.62C90.07 191.43 89.85 191.24 89.63 191.04C89.63 191.04 89.62 191.04 89.61 191.03C89.4 190.84 89.2 190.64 88.99 190.44C88.99 190.44 88.99 190.44 88.98 190.43L88.96 190.41L88.94 190.39L80.26 181.64L80.02 181.41L79.92 181.31L79.88 181.27C79.88 181.27 79.79 181.18 79.76 181.13L79.71 181.09C79.69 181.07 79.66 181.04 79.64 181.02L78.63 180.01C76.28 177.62 74.97 174.5 74.93 171.19V170.27C74.93 170.27 74.92 170.25 74.92 170.23V170.2C74.92 170.02 74.92 169.84 74.91 169.65L74.78 159.09C74.74 156.01 72.42 154.76 71.7 154.45C71 154.15 68.59 153.32 66.35 155.23C66.35 155.23 66.33 155.24 66.32 155.25L66.24 155.33L66.21 155.36L49.29 170.79C49.21 170.86 49.13 170.94 49.05 171.01L47.39 172.54C47.05 172.85 46.98 173.2 46.98 173.45V173.43Z" fill="#365D84"/>
<path d="M41.1 162.69V162.68L39.63 164.04L41.1 162.69Z" fill="#365D84"/>
<path d="M5.69003 134.37L5.65003 134.48C5.57003 134.71 5.57003 135.05 5.85003 135.31L22.89 151.32C22.89 151.32 22.95 151.37 22.98 151.4C23.01 151.43 23.04 151.46 23.07 151.48C23.11 151.51 23.14 151.54 23.18 151.58L34.54 162.25C34.54 162.25 34.54 162.25 34.55 162.26C36.41 163.99 39.28 164.1 41.26 162.51C41.34 162.44 41.42 162.37 41.5 162.3L41.54 162.27L58.49 146.8C58.6 146.7 58.7 146.61 58.81 146.52C58.81 146.52 58.82 146.52 58.83 146.5C58.84 146.49 58.86 146.48 58.87 146.47L64.89 140.97L70.51 135.83C70.91 135.46 70.99 135.04 70.99 134.75C70.99 134.46 70.91 134.06 70.55 133.72L70.52 133.69L37.96 103.98C37.66 103.7 37.18 103.71 36.88 104.01L5.82003 134.16C5.74003 134.24 5.69003 134.32 5.67003 134.37H5.69003Z" fill="#365D84"/>
<path d="M14.07 213.13C14.06 219.73 16.72 225.82 21.58 230.29C25.88 234.24 31.47 236.42 37.31 236.42C43.15 236.42 48.73 234.24 53.05 230.29L55.38 228.15L20.85 196.76C16.48 201.13 14.08 206.91 14.07 213.14V213.13Z" fill="#365D84"/>
<path d="M43.07 69.46V82.42L50.1 75.88L43.07 69.46Z" fill="#365D84"/>
<path d="M29.48 173.29L29.82 172.97C28.7 172.34 27.64 171.55 26.66 170.64L15.23 159.9C15.22 159.89 15.2 159.88 15.19 159.86C14.22 158.99 12.99 158.56 11.76 158.56C10.53 158.56 9.24998 159.01 8.26998 159.92L7.00998 161.09C5.91998 162.09 5.34998 163.43 5.34998 164.88C5.34998 166.34 5.94998 167.68 7.02998 168.66L20.82 181.19L29.48 173.3V173.29Z" fill="#365D84"/>
<path d="M28.38 97.09C29.45 96.08 30.66 95.28 31.94 94.71C31.69 93.5 31.55 92.25 31.54 91L31.48 58.77L0 29.52L0.02 121.34C1.75 119.88 3.78 118.19 6.15 116.22C14.12 109.57 23.14 102.04 28.38 97.09Z" fill="#365D84"/>
</svg>
