<svg width="40" height="67" fill="none" xmlns="http://www.w3.org/2000/svg"><path fill-rule="evenodd" clip-rule="evenodd" d="M10.044 44.25v11.732l-7.26 4.17c-.273.149-.57.224-.894.224-.995 0-1.815-.799-1.865-1.797V51.09c0-.75.423-1.398 1.07-1.698l8.949-5.142z" fill="url(#paint0_linear)"/><path fill-rule="evenodd" clip-rule="evenodd" d="M2.735 5.786c.024.025 7.309 4.218 7.309 4.218v10.71c0 .174-.1.324-.25.424-1.242.724-7.035 4.118-9.073 5.317a.525.525 0 01-.472 0A.483.483 0 010 26.03V7.433C.025 6.41.845 5.586 1.865 5.586c.223 0 .447.05.67.125l.2.075z" fill="url(#paint1_linear)"/><path fill-rule="evenodd" clip-rule="evenodd" d="M.024 51.117V39.884c0-.85.448-1.648 1.194-2.072a9730.38 9730.38 0 0118.073-10.46.525.525 0 01.472 0c.15.075.249.25.249.425v10.509c0 .175-.1.325-.249.424a26208.76 26208.76 0 00-18.67 10.71 1.852 1.852 0 00-1.069 1.697z" fill="url(#paint2_linear)"/><path fill-rule="evenodd" clip-rule="evenodd" d="M2.81 60.129S23.641 48.097 28.911 45.05a2.382 2.382 0 001.194-2.072V22.984c0-.848-.448-1.647-1.194-2.072L2.81 5.835a1.951 1.951 0 00-.92-.25c-.199 0-.522.075-.696.15 0 0 6.613-3.82 9.373-5.417a2.396 2.396 0 012.386 0C17.526 2.99 34.182 12.6 38.807 15.271A2.382 2.382 0 0140 17.343v31.503c0 .848-.448 1.647-1.193 2.072-4.6 2.645-21.107 12.181-25.68 14.802a2.35 2.35 0 01-2.363 0c-2.809-1.622-9.67-5.541-9.67-5.541.248.124.522.174.795.174.323.025.647-.075.92-.224z" fill="url(#paint3_linear)"/><defs><linearGradient id="paint0_linear" x1="8.171" y1="57.076" x2="3.053" y2="48.247" gradientUnits="userSpaceOnUse"><stop stop-color="#D9C185"/><stop offset="1" stop-color="#8E783E"/></linearGradient><linearGradient id="paint1_linear" x1="-.589" y1="26.048" x2="7.79" y2="8.154" gradientUnits="userSpaceOnUse"><stop offset=".182" stop-color="#D9C185"/><stop offset="1" stop-color="#907C44"/></linearGradient><linearGradient id="paint2_linear" x1="1.453" y1="52.046" x2="18.212" y2="26.345" gradientUnits="userSpaceOnUse"><stop stop-color="#D9C185"/><stop offset=".278" stop-color="#C8B176"/><stop offset="1" stop-color="#9F8951"/></linearGradient><linearGradient id="paint3_linear" x1="20.534" y1="-.006" x2="20.534" y2="66.057" gradientUnits="userSpaceOnUse"><stop stop-color="#D9C185"/><stop offset=".225" stop-color="#CEB67A"/><stop offset=".622" stop-color="#B0995E"/><stop offset="1" stop-color="#8E783E"/></linearGradient></defs></svg>